<mxfile host="app.diagrams.net" modified="2023-06-01T10:38:09.025Z" agent="Mozilla/5.0 (Macintosh; Intel Mac OS X 10_15_7) AppleWebKit/537.36 (KHTML, like Gecko) Chrome/114.0.0.0 Safari/537.36" version="21.3.6" etag="yy1gqzIPnr6OJmtxkHiq" type="github">
  <diagram name="Page-1" id="upmIeg005KMiWbWBH7C6">
    <mxGraphModel>
      <root>
        <mxCell id="0" />
        <mxCell id="1" parent="0" />
      </root>
    </mxGraphModel>
  </diagram>
</mxfile>
